<?xml version="1.0" encoding="utf-8"?>
<!-- Generator: Adobe Illustrator 25.4.1, SVG Export Plug-In . SVG Version: 6.00 Build 0)  -->
<svg version="1.1" id="Layer_1" xmlns="http://www.w3.org/2000/svg" xmlns:xlink="http://www.w3.org/1999/xlink" x="0px" y="0px"
	 viewBox="0 0 60 55" style="enable-background:new 0 0 60 55;" xml:space="preserve">
<style type="text/css">
	.st0{fill:#6D6E71;}
	.st1{fill:#A7A9AC;}
	.st2{fill:#FFFFFF;}
</style>
<g>
	<g>
		<path class="st0" d="M15.32,37.24c0-1.67,0.91-2.72,2.25-2.72c0.62,0,1.09,0.31,1.37,0.63l-0.22,0.25
			c-0.28-0.32-0.67-0.54-1.15-0.54c-1.15,0-1.87,0.92-1.87,2.38c0,1.46,0.71,2.41,1.84,2.41c0.54,0,0.95-0.22,1.33-0.65l0.22,0.23
			c-0.4,0.47-0.88,0.75-1.57,0.75C16.23,39.98,15.32,38.92,15.32,37.24z"/>
		<path class="st0" d="M20.13,36.05h0.3l0.04,0.72h0.02c0.26-0.47,0.64-0.81,1.09-0.81c0.14,0,0.25,0.02,0.38,0.08l-0.08,0.32
			c-0.13-0.05-0.2-0.06-0.35-0.06c-0.35,0-0.75,0.26-1.05,0.99v2.61h-0.35V36.05z"/>
		<path class="st0" d="M22.35,37.97c0-1.28,0.8-2.02,1.72-2.02c0.92,0,1.72,0.74,1.72,2.02c0,1.27-0.8,2.01-1.72,2.01
			C23.15,39.98,22.35,39.24,22.35,37.97z M25.42,37.97c0-1.01-0.58-1.71-1.35-1.71c-0.78,0-1.35,0.7-1.35,1.71s0.58,1.7,1.35,1.7
			C24.84,39.67,25.42,38.98,25.42,37.97z"/>
		<path class="st0" d="M26.95,36.05h0.3l0.04,0.48h0.02c0.38-0.3,0.83-0.58,1.3-0.58c1.03,0,1.54,0.77,1.54,1.96
			c0,1.3-0.79,2.07-1.69,2.07c-0.36,0-0.75-0.17-1.15-0.47l0,0.71v1.41h-0.35V36.05z M29.77,37.91c0-0.94-0.34-1.65-1.22-1.65
			c-0.38,0-0.79,0.22-1.25,0.63v2.28c0.43,0.36,0.84,0.49,1.13,0.49C29.21,39.67,29.77,38.95,29.77,37.91z"/>
		<path class="st0" d="M31.3,39.37v-5.24h0.35v5.29c0,0.17,0.07,0.25,0.17,0.25c0.03,0,0.07,0,0.14-0.02l0.06,0.29
			c-0.07,0.02-0.14,0.04-0.25,0.04C31.46,39.98,31.3,39.79,31.3,39.37z"/>
		<path class="st0" d="M32.92,38.93c0-0.85,0.77-1.26,2.48-1.45c0.01-0.59-0.15-1.22-0.91-1.22c-0.52,0-0.97,0.26-1.22,0.45
			l-0.16-0.26c0.27-0.19,0.8-0.5,1.43-0.5c0.91,0,1.22,0.66,1.22,1.48v2.45h-0.3l-0.04-0.5H35.4c-0.39,0.32-0.86,0.59-1.36,0.59
			C33.43,39.98,32.92,39.65,32.92,38.93z M35.4,39.06v-1.31c-1.58,0.18-2.12,0.55-2.12,1.16c0,0.55,0.37,0.76,0.81,0.76
			C34.54,39.67,34.92,39.46,35.4,39.06z"/>
		<path class="st0" d="M37.12,36.05h0.3l0.04,0.59h0.02c0.39-0.39,0.79-0.69,1.32-0.69c0.79,0,1.16,0.48,1.16,1.47v2.46h-0.35v-2.42
			c0-0.81-0.26-1.2-0.88-1.2c-0.46,0-0.79,0.24-1.25,0.72v2.9h-0.35V36.05z"/>
		<path class="st0" d="M41.06,37.97c0-1.24,0.79-2.02,1.7-2.02c0.46,0,0.77,0.17,1.16,0.47l-0.02-0.71v-1.58h0.35v5.75h-0.3
			l-0.04-0.5H43.9c-0.32,0.32-0.74,0.59-1.25,0.59C41.69,39.98,41.06,39.27,41.06,37.97z M43.9,39.04v-2.28
			c-0.4-0.36-0.74-0.49-1.12-0.49c-0.76,0-1.35,0.75-1.35,1.71c0,1.02,0.45,1.7,1.27,1.7C43.12,39.67,43.5,39.45,43.9,39.04z"/>
	</g>
</g>
<g>
	<path class="st1" d="M58.94,21.02c0,5.5-4.5,10-10,10h-38c-5.5,0-10-4.5-10-10v-10c0-5.5,4.5-10,10-10h38c5.5,0,10,4.5,10,10V21.02
		z"/>
</g>
<g>
	<g>
		<path class="st2" d="M22.68,6.63h0.41v5.93h-0.41V6.63z"/>
		<path class="st2" d="M24.43,10.41c0-1.45,0.92-2.28,1.98-2.28c0.59,0,0.97,0.26,1.27,0.53l-0.23,0.28
			c-0.28-0.26-0.6-0.46-1.02-0.46c-0.88,0-1.57,0.79-1.57,1.93c0,1.14,0.62,1.91,1.56,1.91c0.46,0,0.86-0.22,1.16-0.5l0.21,0.28
			c-0.37,0.33-0.83,0.57-1.38,0.57C25.27,12.67,24.43,11.84,24.43,10.41z"/>
		<path class="st2" d="M28.47,10.41c0-1.45,0.9-2.28,1.94-2.28c1.04,0,1.94,0.83,1.94,2.28c0,1.43-0.9,2.26-1.94,2.26
			C29.37,12.67,28.47,11.84,28.47,10.41z M31.93,10.41c0-1.14-0.65-1.93-1.52-1.93s-1.52,0.79-1.52,1.93c0,1.14,0.65,1.91,1.52,1.91
			S31.93,11.54,31.93,10.41z"/>
		<path class="st2" d="M33.65,8.24h0.34l0.04,0.67h0.02c0.44-0.44,0.89-0.78,1.49-0.78c0.89,0,1.31,0.54,1.31,1.66v2.77h-0.4V9.84
			c0-0.92-0.29-1.35-0.98-1.35c-0.52,0-0.89,0.27-1.41,0.81v3.26h-0.4V8.24z"/>
		<path class="st2" d="M9.64,17.43h1.49c1.34,0,2.15,0.44,2.15,1.65c0,1.16-0.79,1.73-2.11,1.73h-1.12v2.55H9.64V17.43z
			 M11.07,20.46c1.21,0,1.79-0.4,1.79-1.38c0-0.99-0.6-1.3-1.83-1.3h-0.98v2.68H11.07z"/>
		<path class="st2" d="M14.54,22.78v-5.9h0.4v5.95c0,0.19,0.08,0.28,0.19,0.28c0.04,0,0.07,0,0.16-0.02l0.07,0.32
			c-0.08,0.02-0.15,0.04-0.29,0.04C14.72,23.47,14.54,23.25,14.54,22.78z"/>
		<path class="st2" d="M16.36,22.28c0-0.96,0.87-1.42,2.79-1.63c0.01-0.66-0.17-1.38-1.02-1.38c-0.58,0-1.09,0.29-1.38,0.51
			l-0.18-0.29c0.31-0.22,0.91-0.56,1.61-0.56c1.02,0,1.37,0.74,1.37,1.67v2.76h-0.34l-0.04-0.56h-0.02
			c-0.44,0.36-0.97,0.67-1.53,0.67C16.93,23.47,16.36,23.1,16.36,22.28z M19.15,22.43v-1.47c-1.78,0.21-2.38,0.62-2.38,1.31
			c0,0.62,0.42,0.86,0.92,0.86C18.18,23.12,18.61,22.88,19.15,22.43z"/>
		<path class="st2" d="M20.73,21.21c0-1.45,0.92-2.28,1.98-2.28c0.59,0,0.97,0.26,1.27,0.53l-0.23,0.28
			c-0.28-0.26-0.6-0.46-1.02-0.46c-0.88,0-1.57,0.79-1.57,1.93s0.62,1.91,1.56,1.91c0.46,0,0.86-0.22,1.16-0.5l0.21,0.28
			c-0.37,0.33-0.83,0.57-1.38,0.57C21.57,23.47,20.73,22.64,20.73,21.21z"/>
		<path class="st2" d="M24.77,21.21c0-1.41,0.92-2.28,1.89-2.28c1.02,0,1.65,0.73,1.65,2c0,0.11,0,0.22-0.02,0.32h-3.11
			c0.01,1.09,0.65,1.87,1.63,1.87c0.47,0,0.84-0.16,1.16-0.38l0.16,0.3c-0.34,0.21-0.73,0.43-1.36,0.43
			C25.66,23.47,24.77,22.62,24.77,21.21z M27.93,20.93c0-1.1-0.5-1.65-1.28-1.65c-0.73,0-1.39,0.62-1.48,1.65H27.93z"/>
		<path class="st2" d="M29.48,16.88h0.4v1.88l-0.01,0.95c0.45-0.45,0.9-0.79,1.5-0.79c0.89,0,1.31,0.54,1.31,1.66v2.77h-0.4v-2.72
			c0-0.92-0.29-1.35-0.98-1.35c-0.52,0-0.89,0.27-1.41,0.81v3.26h-0.4V16.88z"/>
		<path class="st2" d="M33.86,21.21c0-1.45,0.9-2.28,1.94-2.28s1.94,0.83,1.94,2.28c0,1.43-0.9,2.26-1.94,2.26
			S33.86,22.64,33.86,21.21z M37.33,21.21c0-1.14-0.65-1.93-1.52-1.93s-1.52,0.79-1.52,1.93s0.65,1.91,1.52,1.91
			S37.33,22.35,37.33,21.21z"/>
		<path class="st2" d="M39.04,22.78v-5.9h0.4v5.95c0,0.19,0.08,0.28,0.19,0.28c0.04,0,0.07,0,0.16-0.02l0.07,0.32
			c-0.08,0.02-0.15,0.04-0.29,0.04C39.22,23.47,39.04,23.25,39.04,22.78z"/>
		<path class="st2" d="M40.82,21.21c0-1.4,0.89-2.28,1.92-2.28c0.52,0,0.87,0.2,1.3,0.53l-0.02-0.79v-1.78h0.4v6.48h-0.34
			l-0.04-0.56h-0.02c-0.35,0.35-0.84,0.67-1.41,0.67C41.52,23.47,40.82,22.67,40.82,21.21z M44.02,22.4v-2.56
			c-0.46-0.41-0.84-0.56-1.26-0.56c-0.86,0-1.52,0.84-1.52,1.92c0,1.15,0.51,1.91,1.43,1.91C43.14,23.12,43.56,22.87,44.02,22.4z"/>
		<path class="st2" d="M45.71,21.21c0-1.41,0.92-2.28,1.88-2.28c1.02,0,1.65,0.73,1.65,2c0,0.11,0,0.22-0.02,0.32h-3.11
			c0.01,1.09,0.65,1.87,1.63,1.87c0.47,0,0.84-0.16,1.16-0.38l0.16,0.3c-0.34,0.21-0.73,0.43-1.36,0.43
			C46.6,23.47,45.71,22.62,45.71,21.21z M48.87,20.93c0-1.1-0.5-1.65-1.28-1.65c-0.73,0-1.39,0.62-1.48,1.65H48.87z"/>
		<path class="st2" d="M50.42,19.04h0.34l0.04,0.81h0.02c0.29-0.53,0.72-0.91,1.23-0.91c0.16,0,0.29,0.02,0.43,0.09l-0.09,0.36
			c-0.15-0.05-0.22-0.07-0.39-0.07c-0.39,0-0.85,0.29-1.18,1.11v2.94h-0.4V19.04z"/>
	</g>
</g>
</svg>
