<?xml version="1.0" encoding="utf-8"?>
<!-- Generator: Adobe Illustrator 25.4.1, SVG Export Plug-In . SVG Version: 6.00 Build 0)  -->
<svg version="1.1" id="Layer_1" xmlns="http://www.w3.org/2000/svg" xmlns:xlink="http://www.w3.org/1999/xlink" x="0px" y="0px"
	 viewBox="0 0 60 55" style="enable-background:new 0 0 60 55;" xml:space="preserve">
<style type="text/css">
	.st0{fill:#6D6E71;}
	.st1{fill:#A7A9AC;}
	.st2{fill:#FFFFFF;}
</style>
<g>
	<g>
		<path class="st0" d="M4.39,34.62h1.22c1.63,0,2.4,1.02,2.4,2.62c0,1.59-0.77,2.65-2.39,2.65H4.39V34.62z M5.57,39.57
			c1.43,0,2.05-0.97,2.05-2.34c0-1.37-0.62-2.31-2.05-2.31H4.76v4.65H5.57z"/>
		<path class="st0" d="M8.86,37.97c0-1.25,0.81-2.02,1.67-2.02c0.91,0,1.47,0.65,1.47,1.78c0,0.1,0,0.19-0.02,0.29H9.22
			c0.01,0.97,0.58,1.66,1.45,1.66c0.42,0,0.74-0.14,1.03-0.34l0.15,0.27c-0.3,0.19-0.65,0.38-1.21,0.38
			C9.66,39.98,8.86,39.23,8.86,37.97z M11.67,37.72c0-0.98-0.44-1.47-1.13-1.47c-0.65,0-1.24,0.55-1.32,1.47H11.67z"/>
		<path class="st0" d="M12.41,36.05h0.38l0.86,2.41c0.12,0.37,0.26,0.76,0.39,1.1h0.03c0.12-0.35,0.26-0.73,0.39-1.1l0.86-2.41h0.36
			l-1.42,3.84h-0.42L12.41,36.05z"/>
		<path class="st0" d="M16.2,37.97c0-1.25,0.81-2.02,1.67-2.02c0.91,0,1.47,0.65,1.47,1.78c0,0.1,0,0.19-0.02,0.29h-2.76
			c0.01,0.97,0.58,1.66,1.45,1.66c0.42,0,0.74-0.14,1.03-0.34l0.15,0.27c-0.3,0.19-0.65,0.38-1.21,0.38
			C16.99,39.98,16.2,39.23,16.2,37.97z M19.01,37.72c0-0.98-0.44-1.47-1.13-1.47c-0.65,0-1.24,0.55-1.32,1.47H19.01z"/>
		<path class="st0" d="M20.38,39.37v-5.24h0.35v5.29c0,0.17,0.07,0.25,0.17,0.25c0.03,0,0.07,0,0.14-0.02l0.06,0.29
			c-0.07,0.02-0.14,0.04-0.25,0.04C20.54,39.98,20.38,39.79,20.38,39.37z"/>
		<path class="st0" d="M21.96,37.97c0-1.28,0.8-2.02,1.72-2.02c0.92,0,1.72,0.74,1.72,2.02c0,1.27-0.8,2.01-1.72,2.01
			C22.76,39.98,21.96,39.24,21.96,37.97z M25.03,37.97c0-1.01-0.58-1.71-1.35-1.71c-0.78,0-1.35,0.7-1.35,1.71s0.58,1.7,1.35,1.7
			C24.46,39.67,25.03,38.98,25.03,37.97z"/>
		<path class="st0" d="M26.56,36.05h0.3l0.04,0.48h0.02c0.38-0.3,0.83-0.58,1.3-0.58c1.03,0,1.54,0.77,1.54,1.96
			c0,1.3-0.79,2.07-1.69,2.07c-0.36,0-0.75-0.17-1.15-0.47l0,0.71v1.41h-0.35V36.05z M29.38,37.91c0-0.94-0.34-1.65-1.22-1.65
			c-0.38,0-0.79,0.22-1.25,0.63v2.28c0.43,0.36,0.84,0.49,1.13,0.49C28.82,39.67,29.38,38.95,29.38,37.91z"/>
		<path class="st0" d="M30.59,37.97c0-1.25,0.81-2.02,1.67-2.02c0.91,0,1.47,0.65,1.47,1.78c0,0.1,0,0.19-0.02,0.29h-2.76
			c0.01,0.97,0.58,1.66,1.45,1.66c0.42,0,0.74-0.14,1.03-0.34l0.15,0.27c-0.3,0.19-0.65,0.38-1.21,0.38
			C31.38,39.98,30.59,39.23,30.59,37.97z M33.4,37.72c0-0.98-0.44-1.47-1.13-1.47c-0.65,0-1.24,0.55-1.32,1.47H33.4z"/>
		<path class="st0" d="M34.46,37.97c0-1.24,0.79-2.02,1.7-2.02c0.46,0,0.77,0.17,1.16,0.47l-0.02-0.71v-1.58h0.35v5.75h-0.3
			l-0.04-0.5H37.3c-0.32,0.32-0.74,0.59-1.25,0.59C35.08,39.98,34.46,39.27,34.46,37.97z M37.3,39.04v-2.28
			c-0.4-0.36-0.74-0.49-1.12-0.49c-0.76,0-1.35,0.75-1.35,1.71c0,1.02,0.45,1.7,1.27,1.7C36.52,39.67,36.89,39.45,37.3,39.04z"/>
		<path class="st0" d="M40.77,34.62h0.37v4.95h2.43v0.32h-2.79V34.62z"/>
		<path class="st0" d="M44.19,38.93c0-0.85,0.77-1.26,2.48-1.45c0.01-0.59-0.15-1.22-0.91-1.22c-0.52,0-0.97,0.26-1.22,0.45
			l-0.16-0.26c0.27-0.19,0.8-0.5,1.43-0.5c0.91,0,1.22,0.66,1.22,1.48v2.45h-0.3l-0.04-0.5h-0.02c-0.39,0.32-0.86,0.59-1.36,0.59
			C44.69,39.98,44.19,39.65,44.19,38.93z M46.67,39.06v-1.31c-1.58,0.18-2.12,0.55-2.12,1.16c0,0.55,0.37,0.76,0.81,0.76
			C45.8,39.67,46.19,39.46,46.67,39.06z"/>
		<path class="st0" d="M48.39,36.05h0.3l0.04,0.59h0.02c0.39-0.39,0.79-0.69,1.32-0.69c0.79,0,1.16,0.48,1.16,1.47v2.46h-0.35v-2.42
			c0-0.81-0.26-1.2-0.88-1.2c-0.46,0-0.79,0.24-1.25,0.72v2.9h-0.35V36.05z"/>
		<path class="st0" d="M52.33,37.97c0-1.24,0.79-2.02,1.7-2.02c0.46,0,0.77,0.17,1.16,0.47l-0.02-0.71v-1.58h0.35v5.75h-0.3
			l-0.04-0.5h-0.02c-0.32,0.32-0.74,0.59-1.25,0.59C52.95,39.98,52.33,39.27,52.33,37.97z M55.17,39.04v-2.28
			c-0.4-0.36-0.74-0.49-1.12-0.49c-0.76,0-1.35,0.75-1.35,1.71c0,1.02,0.45,1.7,1.27,1.7C54.39,39.67,54.77,39.45,55.17,39.04z"/>
		<path class="st0" d="M16.11,43.21h0.3l-2.44,6.96h-0.3L16.11,43.21z"/>
		<path class="st0" d="M18.81,46.86v-3.25h0.37v3.21c0,1.4,0.66,1.82,1.4,1.82c0.76,0,1.43-0.42,1.43-1.82v-3.21h0.35v3.25
			c0,1.65-0.87,2.12-1.78,2.12S18.81,48.51,18.81,46.86z"/>
		<path class="st0" d="M23.86,45.05h0.3l0.04,0.72h0.02c0.26-0.47,0.64-0.81,1.09-0.81c0.14,0,0.25,0.02,0.38,0.08l-0.08,0.32
			c-0.13-0.05-0.2-0.06-0.35-0.06c-0.35,0-0.75,0.26-1.05,0.99v2.61h-0.35V45.05z"/>
		<path class="st0" d="M26.75,48.5h-0.02l-0.04,0.39H26.4v-5.75h0.35v1.67l-0.02,0.75c0.39-0.33,0.85-0.6,1.32-0.6
			c1.03,0,1.54,0.77,1.54,1.96c0,1.3-0.79,2.07-1.69,2.07C27.53,48.98,27.11,48.79,26.75,48.5z M29.22,46.91
			c0-0.94-0.34-1.65-1.22-1.65c-0.38,0-0.8,0.22-1.25,0.63v2.28c0.42,0.36,0.84,0.49,1.13,0.49C28.66,48.67,29.22,47.95,29.22,46.91
			z"/>
		<path class="st0" d="M30.46,47.93c0-0.85,0.77-1.26,2.48-1.45c0.01-0.59-0.15-1.22-0.91-1.22c-0.52,0-0.97,0.26-1.22,0.45
			l-0.16-0.26c0.27-0.19,0.8-0.5,1.43-0.5c0.91,0,1.22,0.66,1.22,1.48v2.45h-0.3l-0.04-0.5h-0.02c-0.39,0.32-0.86,0.59-1.36,0.59
			C30.96,48.98,30.46,48.65,30.46,47.93z M32.93,48.06v-1.31c-1.58,0.18-2.12,0.55-2.12,1.16c0,0.55,0.37,0.76,0.81,0.76
			C32.07,48.67,32.46,48.46,32.93,48.06z"/>
		<path class="st0" d="M34.66,45.05h0.3l0.04,0.6h0.02c0.39-0.39,0.79-0.69,1.32-0.69c0.79,0,1.16,0.48,1.16,1.47v2.46h-0.35v-2.42
			c0-0.81-0.26-1.2-0.88-1.2c-0.46,0-0.79,0.24-1.25,0.72v2.9h-0.35V45.05z"/>
		<path class="st0" d="M41.7,43.62h0.37l1.86,5.27h-0.39l-1.05-3.1c-0.21-0.62-0.4-1.18-0.58-1.82h-0.03
			c-0.18,0.64-0.37,1.19-0.58,1.82l-1.07,3.1h-0.37L41.7,43.62z M40.69,46.77h2.36v0.31h-2.36V46.77z"/>
		<path class="st0" d="M44.4,49.67c0-0.33,0.22-0.68,0.57-0.93v-0.03c-0.19-0.12-0.34-0.32-0.34-0.62c0-0.34,0.25-0.59,0.42-0.71
			v-0.03c-0.24-0.21-0.49-0.59-0.49-1.05c0-0.79,0.6-1.35,1.35-1.35c0.21,0,0.39,0.05,0.51,0.1h1.3v0.3h-0.89
			c0.25,0.21,0.42,0.56,0.42,0.96c0,0.79-0.59,1.36-1.34,1.36c-0.21,0-0.46-0.06-0.63-0.16c-0.17,0.14-0.31,0.3-0.31,0.56
			c0,0.28,0.16,0.5,0.73,0.5h0.82c0.86,0,1.27,0.27,1.27,0.88c0,0.66-0.71,1.3-1.81,1.3C45.01,50.73,44.4,50.32,44.4,49.67z
			 M47.43,49.48c0-0.42-0.31-0.58-0.89-0.58h-0.82c-0.08,0-0.28-0.02-0.47-0.06c-0.36,0.24-0.5,0.54-0.5,0.81
			c0,0.49,0.46,0.81,1.27,0.81C46.88,50.45,47.43,49.96,47.43,49.48z M46.91,46.3c0-0.65-0.45-1.06-0.99-1.06s-0.99,0.41-0.99,1.06
			c0,0.64,0.46,1.08,0.99,1.08S46.91,46.95,46.91,46.3z"/>
	</g>
</g>
<g>
	<path class="st1" d="M58.94,21.02c0,5.5-4.5,10-10,10h-38c-5.5,0-10-4.5-10-10v-10c0-5.5,4.5-10,10-10h38c5.5,0,10,4.5,10,10V21.02
		z"/>
</g>
<g>
	<g>
		<path class="st2" d="M22.95,6.61h0.41v5.93h-0.41V6.61z"/>
		<path class="st2" d="M24.7,10.38c0-1.45,0.92-2.28,1.98-2.28c0.59,0,0.97,0.26,1.27,0.53l-0.23,0.28
			c-0.28-0.26-0.6-0.46-1.02-0.46c-0.88,0-1.57,0.79-1.57,1.93c0,1.14,0.62,1.91,1.56,1.91c0.46,0,0.86-0.22,1.16-0.5l0.21,0.28
			c-0.37,0.33-0.83,0.57-1.38,0.57C25.55,12.65,24.7,11.81,24.7,10.38z"/>
		<path class="st2" d="M28.74,10.38c0-1.45,0.9-2.28,1.94-2.28s1.94,0.83,1.94,2.28c0,1.43-0.9,2.26-1.94,2.26
			S28.74,11.81,28.74,10.38z M32.21,10.38c0-1.14-0.65-1.93-1.52-1.93c-0.87,0-1.52,0.79-1.52,1.93c0,1.14,0.65,1.91,1.52,1.91
			C31.56,12.29,32.21,11.52,32.21,10.38z"/>
		<path class="st2" d="M33.92,8.21h0.34l0.04,0.67h0.02c0.44-0.44,0.89-0.78,1.49-0.78c0.89,0,1.31,0.54,1.31,1.66v2.77h-0.4V9.82
			c0-0.92-0.29-1.35-0.98-1.35c-0.52,0-0.89,0.27-1.41,0.81v3.26h-0.4V8.21z"/>
		<path class="st2" d="M9.91,17.41h1.49c1.34,0,2.15,0.44,2.15,1.65c0,1.16-0.79,1.73-2.11,1.73h-1.12v2.55H9.91V17.41z
			 M11.34,20.44c1.21,0,1.79-0.4,1.79-1.38c0-0.99-0.6-1.3-1.83-1.3h-0.98v2.68H11.34z"/>
		<path class="st2" d="M14.81,22.76v-5.9h0.4v5.95c0,0.19,0.08,0.28,0.19,0.28c0.04,0,0.07,0,0.16-0.02l0.07,0.32
			c-0.08,0.02-0.15,0.04-0.29,0.04C14.99,23.45,14.81,23.23,14.81,22.76z"/>
		<path class="st2" d="M16.63,22.26c0-0.96,0.87-1.42,2.79-1.63c0.01-0.66-0.17-1.38-1.02-1.38c-0.58,0-1.09,0.29-1.38,0.51
			l-0.18-0.29c0.31-0.22,0.91-0.56,1.61-0.56c1.02,0,1.37,0.74,1.37,1.67v2.76h-0.34l-0.04-0.56h-0.02
			c-0.44,0.36-0.97,0.67-1.53,0.67C17.2,23.45,16.63,23.07,16.63,22.26z M19.42,22.41v-1.47c-1.78,0.21-2.38,0.62-2.38,1.31
			c0,0.62,0.42,0.86,0.92,0.86C18.45,23.1,18.89,22.86,19.42,22.41z"/>
		<path class="st2" d="M21,21.19c0-1.45,0.92-2.28,1.98-2.28c0.59,0,0.97,0.26,1.27,0.53l-0.23,0.28c-0.28-0.26-0.6-0.46-1.02-0.46
			c-0.88,0-1.57,0.79-1.57,1.93s0.62,1.91,1.56,1.91c0.46,0,0.86-0.22,1.16-0.5l0.21,0.28c-0.37,0.33-0.83,0.57-1.38,0.57
			C21.84,23.45,21,22.61,21,21.19z"/>
		<path class="st2" d="M25.04,21.19c0-1.41,0.92-2.28,1.89-2.28c1.02,0,1.65,0.73,1.65,2c0,0.11,0,0.22-0.02,0.32h-3.11
			c0.01,1.09,0.65,1.87,1.63,1.87c0.47,0,0.84-0.16,1.16-0.38l0.16,0.3c-0.34,0.21-0.73,0.43-1.36,0.43
			C25.93,23.45,25.04,22.6,25.04,21.19z M28.21,20.9c0-1.1-0.5-1.65-1.28-1.65c-0.73,0-1.39,0.62-1.48,1.65H28.21z"/>
		<path class="st2" d="M29.75,16.86h0.4v1.88l-0.01,0.95c0.45-0.45,0.9-0.79,1.5-0.79c0.89,0,1.31,0.54,1.31,1.66v2.77h-0.4v-2.72
			c0-0.92-0.29-1.35-0.99-1.35c-0.51,0-0.89,0.27-1.41,0.81v3.26h-0.4V16.86z"/>
		<path class="st2" d="M34.14,21.19c0-1.45,0.9-2.28,1.94-2.28s1.94,0.83,1.94,2.28c0,1.43-0.9,2.26-1.94,2.26
			S34.14,22.61,34.14,21.19z M37.6,21.19c0-1.14-0.65-1.93-1.52-1.93s-1.52,0.79-1.52,1.93s0.65,1.91,1.52,1.91
			S37.6,22.32,37.6,21.19z"/>
		<path class="st2" d="M39.32,22.76v-5.9h0.4v5.95c0,0.19,0.08,0.28,0.19,0.28c0.04,0,0.07,0,0.16-0.02l0.07,0.32
			c-0.08,0.02-0.15,0.04-0.29,0.04C39.5,23.45,39.32,23.23,39.32,22.76z"/>
		<path class="st2" d="M41.09,21.19c0-1.4,0.89-2.28,1.92-2.28c0.52,0,0.87,0.2,1.3,0.53l-0.02-0.79v-1.78h0.4v6.48h-0.34
			l-0.04-0.56h-0.02c-0.35,0.35-0.84,0.67-1.41,0.67C41.79,23.45,41.09,22.64,41.09,21.19z M44.29,22.38v-2.56
			c-0.46-0.41-0.84-0.56-1.26-0.56c-0.86,0-1.52,0.84-1.52,1.92c0,1.15,0.51,1.91,1.43,1.91C43.41,23.09,43.84,22.84,44.29,22.38z"
			/>
		<path class="st2" d="M45.98,21.19c0-1.41,0.92-2.28,1.88-2.28c1.02,0,1.65,0.73,1.65,2c0,0.11,0,0.22-0.02,0.32h-3.11
			c0.01,1.09,0.65,1.87,1.63,1.87c0.47,0,0.84-0.16,1.16-0.38l0.16,0.3c-0.34,0.21-0.73,0.43-1.36,0.43
			C46.88,23.45,45.98,22.6,45.98,21.19z M49.15,20.9c0-1.1-0.5-1.65-1.28-1.65c-0.73,0-1.39,0.62-1.48,1.65H49.15z"/>
		<path class="st2" d="M50.69,19.02h0.34l0.04,0.81h0.02c0.29-0.53,0.72-0.91,1.23-0.91c0.16,0,0.29,0.02,0.43,0.09l-0.09,0.36
			c-0.15-0.05-0.22-0.07-0.39-0.07c-0.39,0-0.85,0.29-1.18,1.11v2.94h-0.4V19.02z"/>
	</g>
</g>
</svg>
